<mxfile host="Electron" modified="2023-09-30T03:19:18.845Z" agent="Mozilla/5.0 (Windows NT 10.0; Win64; x64) AppleWebKit/537.36 (KHTML, like Gecko) draw.io/21.7.5 Chrome/114.0.5735.289 Electron/25.8.1 Safari/537.36" etag="KgAW1erg4Y9FKsvLB2ES" version="21.7.5" type="device">
  <diagram name="Page-1" id="8uxIOlfS1E-iyjLQVK4I">
    <mxGraphModel dx="1434" dy="844" grid="1" gridSize="10" guides="1" tooltips="1" connect="1" arrows="1" fold="1" page="1" pageScale="1" pageWidth="1500" pageHeight="1500" math="0" shadow="0">
      <root>
        <mxCell id="0" />
        <mxCell id="1" parent="0" />
        <mxCell id="FIGIXVCr3nPSFHDWheWq-66" value="" style="group;fillColor=#f5f5f5;strokeColor=#666666;fontColor=#333333;" vertex="1" connectable="0" parent="1">
          <mxGeometry x="40" y="40" width="960" height="470" as="geometry" />
        </mxCell>
        <mxCell id="FIGIXVCr3nPSFHDWheWq-65" value="" style="rounded=0;whiteSpace=wrap;html=1;fillColor=#f5f5f5;strokeColor=#666666;fontColor=#333333;" vertex="1" parent="FIGIXVCr3nPSFHDWheWq-66">
          <mxGeometry width="960" height="470" as="geometry" />
        </mxCell>
        <mxCell id="FIGIXVCr3nPSFHDWheWq-45" value="" style="group" vertex="1" connectable="0" parent="FIGIXVCr3nPSFHDWheWq-66">
          <mxGeometry x="150" y="80" width="770" height="390" as="geometry" />
        </mxCell>
        <mxCell id="FIGIXVCr3nPSFHDWheWq-23" value="" style="group;fillColor=#ffe6cc;strokeColor=#d79b00;" vertex="1" connectable="0" parent="FIGIXVCr3nPSFHDWheWq-45">
          <mxGeometry x="394.0944881889764" y="-20" width="375.90551181102364" height="390" as="geometry" />
        </mxCell>
        <mxCell id="FIGIXVCr3nPSFHDWheWq-21" value="&lt;h1&gt;&lt;font style=&quot;font-size: 20px;&quot;&gt;Amazon RDS&lt;/font&gt;&lt;/h1&gt;" style="text;html=1;strokeColor=none;fillColor=none;spacing=5;spacingTop=-20;whiteSpace=wrap;overflow=hidden;rounded=0;" vertex="1" parent="FIGIXVCr3nPSFHDWheWq-23">
          <mxGeometry x="15.910000000000002" width="141.81" height="31.13" as="geometry" />
        </mxCell>
        <mxCell id="FIGIXVCr3nPSFHDWheWq-38" value="&lt;font style=&quot;font-size: 15px;&quot;&gt;Budget&lt;/font&gt;" style="shape=cylinder3;whiteSpace=wrap;html=1;boundedLbl=1;backgroundOutline=1;size=15;" vertex="1" parent="FIGIXVCr3nPSFHDWheWq-23">
          <mxGeometry x="130.35433070866142" y="81.7741935483871" width="115.1968503937008" height="88.06451612903226" as="geometry" />
        </mxCell>
        <mxCell id="FIGIXVCr3nPSFHDWheWq-39" value="&lt;font style=&quot;font-size: 15px;&quot;&gt;Transactions&lt;/font&gt;" style="shape=cylinder3;whiteSpace=wrap;html=1;boundedLbl=1;backgroundOutline=1;size=15;" vertex="1" parent="FIGIXVCr3nPSFHDWheWq-23">
          <mxGeometry x="130.35433070866142" y="182.41935483870967" width="115.1968503937008" height="88.06451612903226" as="geometry" />
        </mxCell>
        <mxCell id="FIGIXVCr3nPSFHDWheWq-40" value="&lt;font style=&quot;font-size: 15px;&quot;&gt;User&lt;/font&gt;" style="shape=cylinder3;whiteSpace=wrap;html=1;boundedLbl=1;backgroundOutline=1;size=15;" vertex="1" parent="FIGIXVCr3nPSFHDWheWq-23">
          <mxGeometry x="130.35433070866142" y="283.06451612903226" width="115.1968503937008" height="88.06451612903226" as="geometry" />
        </mxCell>
        <mxCell id="FIGIXVCr3nPSFHDWheWq-14" value="" style="whiteSpace=wrap;html=1;aspect=fixed;fillColor=#ffe6cc;strokeColor=#d79b00;" vertex="1" parent="FIGIXVCr3nPSFHDWheWq-45">
          <mxGeometry x="-20" y="-20" width="395.91" height="395.91" as="geometry" />
        </mxCell>
        <mxCell id="FIGIXVCr3nPSFHDWheWq-16" value="&lt;h1&gt;&lt;font style=&quot;font-size: 20px;&quot;&gt;Amazon EC2&amp;nbsp;&lt;/font&gt;&lt;/h1&gt;" style="text;html=1;strokeColor=none;fillColor=none;spacing=5;spacingTop=-20;whiteSpace=wrap;overflow=hidden;rounded=0;" vertex="1" parent="FIGIXVCr3nPSFHDWheWq-45">
          <mxGeometry x="-10" y="-20" width="170" height="50" as="geometry" />
        </mxCell>
        <mxCell id="FIGIXVCr3nPSFHDWheWq-2" value="" style="whiteSpace=wrap;html=1;aspect=fixed;fillColor=#d5e8d4;strokeColor=#82b366;container=0;" vertex="1" parent="FIGIXVCr3nPSFHDWheWq-45">
          <mxGeometry x="20" y="20" width="342.69" height="342.69" as="geometry" />
        </mxCell>
        <mxCell id="FIGIXVCr3nPSFHDWheWq-13" value="&lt;h1&gt;&lt;font style=&quot;font-size: 20px;&quot;&gt;Microservices&lt;/font&gt;&lt;/h1&gt;" style="text;html=1;strokeColor=none;fillColor=none;spacing=5;spacingTop=-20;whiteSpace=wrap;overflow=hidden;rounded=0;" vertex="1" parent="FIGIXVCr3nPSFHDWheWq-45">
          <mxGeometry x="30" y="20" width="141.26" height="40" as="geometry" />
        </mxCell>
        <mxCell id="FIGIXVCr3nPSFHDWheWq-62" style="edgeStyle=orthogonalEdgeStyle;rounded=0;orthogonalLoop=1;jettySize=auto;html=1;" edge="1" parent="FIGIXVCr3nPSFHDWheWq-45" source="FIGIXVCr3nPSFHDWheWq-58">
          <mxGeometry relative="1" as="geometry">
            <mxPoint x="520" y="215" as="targetPoint" />
          </mxGeometry>
        </mxCell>
        <mxCell id="FIGIXVCr3nPSFHDWheWq-58" value="&lt;font style=&quot;font-size: 15px;&quot;&gt;Transaction History&lt;/font&gt;" style="rounded=1;whiteSpace=wrap;html=1;" vertex="1" parent="FIGIXVCr3nPSFHDWheWq-45">
          <mxGeometry x="110" y="170" width="190" height="90" as="geometry" />
        </mxCell>
        <mxCell id="FIGIXVCr3nPSFHDWheWq-63" style="edgeStyle=orthogonalEdgeStyle;rounded=0;orthogonalLoop=1;jettySize=auto;html=1;" edge="1" parent="FIGIXVCr3nPSFHDWheWq-45" source="FIGIXVCr3nPSFHDWheWq-35">
          <mxGeometry relative="1" as="geometry">
            <mxPoint x="520" y="310" as="targetPoint" />
          </mxGeometry>
        </mxCell>
        <mxCell id="FIGIXVCr3nPSFHDWheWq-35" value="&lt;font style=&quot;font-size: 15px;&quot;&gt;User Management&lt;/font&gt;" style="rounded=1;whiteSpace=wrap;html=1;" vertex="1" parent="FIGIXVCr3nPSFHDWheWq-45">
          <mxGeometry x="110" y="270" width="190" height="80" as="geometry" />
        </mxCell>
        <mxCell id="FIGIXVCr3nPSFHDWheWq-61" style="edgeStyle=orthogonalEdgeStyle;rounded=0;orthogonalLoop=1;jettySize=auto;html=1;exitX=1;exitY=0.5;exitDx=0;exitDy=0;" edge="1" parent="FIGIXVCr3nPSFHDWheWq-45" source="FIGIXVCr3nPSFHDWheWq-54">
          <mxGeometry relative="1" as="geometry">
            <mxPoint x="520" y="115" as="targetPoint" />
          </mxGeometry>
        </mxCell>
        <mxCell id="FIGIXVCr3nPSFHDWheWq-54" value="&lt;font style=&quot;font-size: 15px;&quot;&gt;Budgeting&lt;/font&gt;" style="rounded=1;whiteSpace=wrap;html=1;" vertex="1" parent="FIGIXVCr3nPSFHDWheWq-45">
          <mxGeometry x="110" y="70" width="190" height="90" as="geometry" />
        </mxCell>
        <mxCell id="FIGIXVCr3nPSFHDWheWq-67" value="&lt;h1&gt;Security Group&lt;/h1&gt;" style="text;html=1;strokeColor=none;fillColor=none;spacing=5;spacingTop=-20;whiteSpace=wrap;overflow=hidden;rounded=0;" vertex="1" parent="FIGIXVCr3nPSFHDWheWq-66">
          <mxGeometry x="10" y="10" width="190" height="36" as="geometry" />
        </mxCell>
        <mxCell id="FIGIXVCr3nPSFHDWheWq-71" value="" style="group" vertex="1" connectable="0" parent="1">
          <mxGeometry x="70" y="770" width="360" height="360" as="geometry" />
        </mxCell>
        <mxCell id="FIGIXVCr3nPSFHDWheWq-68" value="" style="whiteSpace=wrap;html=1;aspect=fixed;fillColor=#f5f5f5;fontColor=#333333;strokeColor=#666666;" vertex="1" parent="FIGIXVCr3nPSFHDWheWq-71">
          <mxGeometry width="360" height="360" as="geometry" />
        </mxCell>
        <mxCell id="FIGIXVCr3nPSFHDWheWq-69" value="Desktop Application" style="swimlane;whiteSpace=wrap;html=1;fillColor=#E8E8E8;rounded=0;shadow=0;gradientColor=none;" vertex="1" parent="FIGIXVCr3nPSFHDWheWq-71">
          <mxGeometry width="360" height="360" as="geometry" />
        </mxCell>
        <mxCell id="FIGIXVCr3nPSFHDWheWq-84" value="" style="shape=actor;whiteSpace=wrap;html=1;" vertex="1" parent="FIGIXVCr3nPSFHDWheWq-71">
          <mxGeometry x="115" y="100" width="130" height="190" as="geometry" />
        </mxCell>
        <mxCell id="FIGIXVCr3nPSFHDWheWq-74" style="edgeStyle=orthogonalEdgeStyle;rounded=0;orthogonalLoop=1;jettySize=auto;html=1;entryX=0.997;entryY=0.422;entryDx=0;entryDy=0;entryPerimeter=0;" edge="1" parent="1" source="FIGIXVCr3nPSFHDWheWq-72" target="FIGIXVCr3nPSFHDWheWq-76">
          <mxGeometry relative="1" as="geometry">
            <mxPoint x="630" y="640" as="targetPoint" />
          </mxGeometry>
        </mxCell>
        <mxCell id="FIGIXVCr3nPSFHDWheWq-72" value="&lt;font style=&quot;font-size: 25px;&quot;&gt;Cloud&lt;/font&gt;" style="ellipse;shape=cloud;whiteSpace=wrap;html=1;" vertex="1" parent="1">
          <mxGeometry x="650" y="580" width="310" height="210" as="geometry" />
        </mxCell>
        <mxCell id="FIGIXVCr3nPSFHDWheWq-77" style="edgeStyle=orthogonalEdgeStyle;rounded=0;orthogonalLoop=1;jettySize=auto;html=1;entryX=0;entryY=0.5;entryDx=0;entryDy=0;" edge="1" parent="1" source="FIGIXVCr3nPSFHDWheWq-76" target="FIGIXVCr3nPSFHDWheWq-35">
          <mxGeometry relative="1" as="geometry" />
        </mxCell>
        <mxCell id="FIGIXVCr3nPSFHDWheWq-78" style="edgeStyle=orthogonalEdgeStyle;rounded=0;orthogonalLoop=1;jettySize=auto;html=1;entryX=0;entryY=0.5;entryDx=0;entryDy=0;" edge="1" parent="1" source="FIGIXVCr3nPSFHDWheWq-76" target="FIGIXVCr3nPSFHDWheWq-58">
          <mxGeometry relative="1" as="geometry" />
        </mxCell>
        <mxCell id="FIGIXVCr3nPSFHDWheWq-79" style="edgeStyle=orthogonalEdgeStyle;rounded=0;orthogonalLoop=1;jettySize=auto;html=1;entryX=0;entryY=0.5;entryDx=0;entryDy=0;" edge="1" parent="1" source="FIGIXVCr3nPSFHDWheWq-76" target="FIGIXVCr3nPSFHDWheWq-54">
          <mxGeometry relative="1" as="geometry" />
        </mxCell>
        <mxCell id="FIGIXVCr3nPSFHDWheWq-76" value="&lt;font style=&quot;font-size: 20px;&quot;&gt;API Gateway&lt;/font&gt;" style="rounded=0;whiteSpace=wrap;html=1;fillColor=#f8cecc;strokeColor=#b85450;" vertex="1" parent="1">
          <mxGeometry x="100" y="560" width="300" height="90" as="geometry" />
        </mxCell>
        <mxCell id="FIGIXVCr3nPSFHDWheWq-82" style="edgeStyle=orthogonalEdgeStyle;rounded=0;orthogonalLoop=1;jettySize=auto;html=1;entryX=0.55;entryY=0.95;entryDx=0;entryDy=0;entryPerimeter=0;" edge="1" parent="1" source="FIGIXVCr3nPSFHDWheWq-68" target="FIGIXVCr3nPSFHDWheWq-72">
          <mxGeometry relative="1" as="geometry">
            <Array as="points">
              <mxPoint x="821" y="960" />
            </Array>
          </mxGeometry>
        </mxCell>
      </root>
    </mxGraphModel>
  </diagram>
</mxfile>
